<svg width="250" viewBox="0 0 85 26" fill="none" xmlns="http://www.w3.org/2000/svg">
<path d="M12.4592 3.09535C11.6898 3.09535 11.2086 3.92778 11.5929 4.59436L21.4359 21.6714L26.8734 21.6714C27.6438 21.6714 28.1248 20.8372 27.7388 20.1706L18.1389 3.59431C17.9601 3.2855 17.6302 3.09535 17.2733 3.09535L12.4592 3.09535Z" fill="url(#paint0_linear_570_1765)"/>
<path d="M3.58699 15.4794H25.0215L27.7382 20.1702C28.1243 20.8369 27.6432 21.6714 26.8728 21.6714H1.73571C0.965312 21.6714 0.484261 20.8369 0.870351 20.1702L3.58699 15.4794Z" fill="url(#paint1_linear_570_1765)"/>
<path d="M17.8494 3.0953L7.12392 21.6713L1.73286 21.6713C0.963015 21.6713 0.481943 20.8382 0.866889 20.1716L10.4395 3.59533C10.6182 3.28592 10.9484 3.0953 11.3058 3.0953L17.8494 3.0953Z" fill="url(#paint2_linear_570_1765)"/>
<path d="M41.1593 6.418L36.1913 19H38.9093L40.0433 16.138H45.6593L46.7933 19H49.5293L44.5433 6.418H41.1593ZM40.9253 13.906L42.8513 8.812L44.7773 13.906H40.9253ZM53.185 14.428H56.011C56.731 14.428 57.397 14.338 57.991 14.158C58.621 13.978 59.179 13.708 59.629 13.366C60.115 13.006 60.493 12.556 60.745 12.052C60.997 11.548 61.141 11.008 61.141 10.414C61.141 9.82 60.997 9.28 60.745 8.776C60.493 8.254 60.115 7.822 59.629 7.462C59.179 7.12 58.621 6.85 57.991 6.67C57.397 6.49 56.731 6.418 56.011 6.418H50.629V19H53.185V14.428ZM53.185 8.74H56.011C56.461 8.74 56.875 8.794 57.217 8.902C57.523 8.992 57.793 9.118 58.009 9.262C58.189 9.406 58.315 9.568 58.423 9.748C58.513 9.946 58.567 10.162 58.567 10.414C58.567 10.666 58.513 10.882 58.423 11.08C58.315 11.26 58.189 11.422 57.991 11.566C57.793 11.728 57.523 11.854 57.217 11.944C56.875 12.034 56.461 12.088 56.011 12.088H53.185V8.74ZM70.2606 6.418L67.1646 10.612L64.0686 6.418H60.9906L65.8866 13.06V19H68.4426V13.06L73.3386 6.418H70.2606ZM81.8831 17.992C82.6751 17.29 83.0711 16.39 83.0351 15.4C82.9631 12.7 80.1551 11.8 78.8231 11.368C78.6431 11.314 78.4991 11.26 78.3551 11.206C78.2651 11.17 78.1571 11.134 78.0311 11.098C76.7891 10.666 76.0691 10.306 76.1231 9.694C76.2131 8.56 77.8871 8.542 77.9591 8.542C79.4891 8.542 79.9751 9.226 80.2091 9.748L82.5851 8.884C81.8291 7.156 80.1911 6.202 77.9591 6.202C75.9071 6.202 73.7291 7.354 73.5491 9.514C73.3511 11.98 75.9971 12.898 77.1311 13.276C77.2211 13.312 77.3111 13.348 77.4011 13.384C77.5631 13.438 77.7431 13.492 77.9591 13.564C79.5971 14.104 80.4431 14.536 80.4611 15.454C80.4791 15.796 80.3531 16.084 80.1011 16.318C79.6691 16.696 78.9131 16.912 78.1031 16.876C77.0591 16.822 75.7991 16.318 75.4211 15.022L72.9551 15.634C73.5491 17.686 75.5291 19.09 77.9771 19.198C78.0851 19.216 78.1931 19.216 78.2831 19.216C79.7051 19.216 81.0011 18.766 81.8831 17.992Z" fill="#151515"/>
<defs>
<linearGradient id="paint0_linear_570_1765" x1="15.8939" y1="6.19136" x2="24.6353" y2="21.3334" gradientUnits="userSpaceOnUse">
<stop stop-color="#08AEEA"/>
<stop offset="1" stop-color="#2AF598"/>
</linearGradient>
<linearGradient id="paint1_linear_570_1765" x1="8.477" y1="19.0642" x2="19.887" y2="19.1514" gradientUnits="userSpaceOnUse">
<stop stop-color="#08AEEA"/>
<stop offset="1" stop-color="#2AF598"/>
</linearGradient>
<linearGradient id="paint2_linear_570_1765" x1="14.7779" y1="0.23722" x2="8.97698" y2="9.83543" gradientUnits="userSpaceOnUse">
<stop stop-color="#08AEEA"/>
<stop offset="1" stop-color="#2AF598"/>
</linearGradient>
</defs>
</svg>
