<svg width="16" height="16" viewBox="0 0 16 16" fill="none" xmlns="http://www.w3.org/2000/svg">
<circle cx="8" cy="8" r="8" fill="white"/>
<circle cx="8" cy="8" r="7.5" stroke="#D3D3D3" stroke-opacity="0.83"/>
<path opacity="0.1" d="M7.71378 12V6.54545H8.77557V12H7.71378ZM8.25 5.70384C8.06534 5.70384 7.90672 5.64228 7.77415 5.51918C7.64394 5.3937 7.57884 5.24455 7.57884 5.07173C7.57884 4.89654 7.64394 4.7474 7.77415 4.62429C7.90672 4.49882 8.06534 4.43608 8.25 4.43608C8.43466 4.43608 8.59209 4.49882 8.7223 4.62429C8.85488 4.7474 8.92116 4.89654 8.92116 5.07173C8.92116 5.24455 8.85488 5.3937 8.7223 5.51918C8.59209 5.64228 8.43466 5.70384 8.25 5.70384Z" fill="#0D0D0D"/>
</svg>
