<svg width="32" height="32" viewBox="52 52 265 265" fill="none" xmlns="http://www.w3.org/2000/svg">
    <circle cx="184.5" cy="184.5" r="132.5" fill="#1C1F26"/>
    <circle cx="184.5" cy="184.5" r="132" stroke="white" stroke-opacity="0.2"/>
    <path d="M164.543 128.298C163.774 128.298 163.292 129.131 163.677 129.798L228.5 242.299L270.766 242.299C271.536 242.299 272.017 241.464 271.631 240.798L206.789 128.797C206.61 128.489 206.281 128.298 205.924 128.298L164.543 128.298Z"
          fill="url(#paint0_linear)"/>
    <path d="M119 204.299H250.5L271.631 240.798C272.017 241.464 271.536 242.299 270.766 242.299H98.7345C97.9641 242.299 97.4831 241.464 97.869 240.798L119 204.299Z"
          fill="url(#paint1_linear)"/>
    <path d="M206.5 128.299L140.7 242.299L98.7321 242.299C97.9624 242.299 97.4812 241.466 97.8661 240.799L162.524 128.799C162.703 128.49 163.033 128.299 163.39 128.299L206.5 128.299Z"
          fill="url(#paint2_linear)"/>
    <defs>
        <linearGradient id="paint0_linear" x1="194.5" y1="147.299" x2="248.154" y2="240.21"
                        gradientUnits="userSpaceOnUse">
            <stop stop-color="#08AEEA"/>
            <stop offset="1" stop-color="#2AF598"/>
        </linearGradient>
        <linearGradient id="paint1_linear" x1="149" y1="226.299" x2="219" y2="226.834" gradientUnits="userSpaceOnUse">
            <stop stop-color="#08AEEA"/>
            <stop offset="1" stop-color="#2AF598"/>
        </linearGradient>
        <linearGradient id="paint2_linear" x1="192" y1="104" x2="144.946" y2="191.971" gradientUnits="userSpaceOnUse">
            <stop stop-color="#08AEEA"/>
            <stop offset="1" stop-color="#2AF598"/>
        </linearGradient>
    </defs>
</svg>